<svg xmlns="http://www.w3.org/2000/svg" xmlns:xlink="http://www.w3.org/1999/xlink" width="500" zoomAndPan="magnify" viewBox="0 0 375 374.999991" height="500" preserveAspectRatio="xMidYMid meet" version="1.0"><defs><clipPath id="d9fe2a5ffd"><path d="M 51.914062 2.226562 L 323.414062 2.226562 L 323.414062 372.726562 L 51.914062 372.726562 Z M 51.914062 2.226562 " clip-rule="nonzero"/></clipPath></defs><g clip-path="url(#d9fe2a5ffd)"><path fill="#545454" d="M 298.734375 101.097656 C 298.734375 94.289062 293.203125 88.757812 286.390625 88.757812 L 88.9375 88.757812 C 82.125 88.757812 76.597656 94.289062 76.597656 101.097656 L 76.597656 281.875 C 76.597656 332.765625 109.867188 372.574219 148.644531 372.574219 C 173.363281 372.574219 201.96875 372.574219 226.6875 372.574219 C 265.460938 372.574219 298.734375 332.765625 298.734375 281.875 Z M 274.050781 113.4375 L 274.050781 281.875 C 274.050781 317.574219 253.886719 347.894531 226.6875 347.894531 C 226.6875 347.894531 148.644531 347.894531 148.644531 347.894531 C 121.445312 347.894531 101.277344 317.574219 101.277344 281.875 C 101.277344 281.875 101.277344 113.4375 101.277344 113.4375 Z M 175.324219 150.457031 L 175.324219 310.875 C 175.324219 317.683594 180.851562 323.214844 187.664062 323.214844 C 194.476562 323.214844 200.007812 317.683594 200.007812 310.875 L 200.007812 150.457031 C 200.007812 143.644531 194.476562 138.117188 187.664062 138.117188 C 180.851562 138.117188 175.324219 143.644531 175.324219 150.457031 Z M 125.960938 150.457031 L 125.960938 310.875 C 125.960938 317.683594 131.488281 323.214844 138.300781 323.214844 C 145.113281 323.214844 150.640625 317.683594 150.640625 310.875 L 150.640625 150.457031 C 150.640625 143.644531 145.113281 138.117188 138.300781 138.117188 C 131.488281 138.117188 125.960938 143.644531 125.960938 150.457031 Z M 224.6875 150.457031 L 224.6875 310.875 C 224.6875 317.683594 230.214844 323.214844 237.027344 323.214844 C 243.839844 323.214844 249.371094 317.683594 249.371094 310.875 L 249.371094 150.457031 C 249.371094 143.644531 243.839844 138.117188 237.027344 138.117188 C 230.214844 138.117188 224.6875 143.644531 224.6875 150.457031 Z M 138.300781 51.742188 L 64.257812 51.742188 C 57.445312 51.742188 51.914062 57.269531 51.914062 64.078125 C 51.914062 70.890625 57.445312 76.417969 64.257812 76.417969 L 311.074219 76.417969 C 317.886719 76.417969 323.414062 70.890625 323.414062 64.078125 C 323.414062 57.269531 317.886719 51.742188 311.074219 51.742188 L 237.027344 51.742188 L 237.027344 31.921875 C 237.027344 15.609375 223.800781 2.382812 207.484375 2.382812 L 167.84375 2.382812 C 151.53125 2.382812 138.300781 15.609375 138.300781 31.921875 Z M 212.347656 31.921875 L 212.347656 51.742188 C 212.347656 51.742188 162.984375 51.742188 162.984375 51.742188 C 162.984375 51.742188 162.984375 31.921875 162.984375 31.921875 C 162.984375 29.234375 165.15625 27.0625 167.84375 27.0625 C 167.84375 27.0625 207.484375 27.0625 207.484375 27.0625 C 210.175781 27.0625 212.347656 29.234375 212.347656 31.921875 Z M 212.347656 31.921875 " fill-opacity="1" fill-rule="evenodd"/></g></svg>