<svg xmlns="http://www.w3.org/2000/svg" xmlns:xlink="http://www.w3.org/1999/xlink" width="500" zoomAndPan="magnify" viewBox="0 0 375 374.999991" height="500" preserveAspectRatio="xMidYMid meet" version="1.0"><path fill="#303030" d="M 187.554688 374.921875 C 178.8125 374.921875 170.0625 374.292969 161.328125 373.03125 C 137.035156 369.523438 113.984375 361.261719 92.8125 348.476562 C 71.640625 335.691406 53.605469 319.140625 39.203125 299.285156 C 25.296875 280.109375 15.359375 258.683594 9.664062 235.59375 C 3.964844 212.507812 2.796875 188.921875 6.1875 165.488281 C 9.699219 141.21875 17.96875 118.1875 30.765625 97.035156 C 48.9375 67 75.128906 42.96875 106.507812 27.53125 C 137.042969 12.511719 171.0625 6.246094 204.882812 9.417969 C 211.808594 10.066406 216.894531 16.199219 216.246094 23.121094 C 215.597656 30.039062 209.457031 35.125 202.53125 34.472656 C 173.347656 31.734375 143.992188 37.140625 117.632812 50.105469 C 90.582031 63.414062 68 84.140625 52.320312 110.054688 C 41.273438 128.304688 34.140625 148.167969 31.113281 169.085938 C 28.1875 189.296875 29.199219 209.648438 34.117188 229.574219 C 39.03125 249.496094 47.605469 267.984375 59.597656 284.523438 C 72.007812 301.636719 87.566406 315.910156 105.839844 326.945312 C 124.109375 337.980469 143.992188 345.105469 164.929688 348.132812 C 185.160156 351.050781 205.53125 350.042969 225.472656 345.132812 C 245.414062 340.21875 263.921875 331.652344 280.472656 319.671875 C 297.605469 307.273438 311.890625 291.730469 322.9375 273.476562 C 335.75 252.296875 343.257812 229.144531 345.246094 204.667969 C 347.144531 181.316406 343.714844 157.363281 335.335938 135.398438 C 332.859375 128.90625 336.121094 121.636719 342.617188 119.160156 C 349.117188 116.6875 356.390625 119.945312 358.871094 126.4375 C 368.578125 151.878906 372.546875 179.636719 370.351562 206.699219 C 369.226562 220.535156 366.511719 234.25 362.277344 247.460938 C 357.925781 261.042969 351.941406 274.175781 344.492188 286.488281 C 331.695312 307.640625 315.128906 325.660156 295.253906 340.046875 C 276.058594 353.9375 254.613281 363.863281 231.503906 369.558594 C 217 373.128906 202.289062 374.917969 187.554688 374.917969 Z M 187.554688 374.921875 " fill-opacity="1" fill-rule="nonzero"/><path fill="#303030" d="M 142.085938 292.597656 C 135.695312 292.597656 129.421875 290.503906 124.269531 286.550781 C 117.582031 281.417969 113.4375 273.660156 112.890625 265.25 L 110.609375 230.027344 C 110.078125 221.824219 112.472656 213.664062 117.351562 207.046875 L 258.296875 15.84375 C 267.863281 2.863281 286.214844 0.0820312 299.203125 9.640625 L 339.910156 39.585938 C 346.203125 44.214844 350.3125 51.015625 351.484375 58.734375 C 352.660156 66.453125 350.753906 74.167969 346.117188 80.453125 L 205.476562 271.246094 C 200.292969 278.277344 192.71875 283.089844 184.144531 284.792969 L 147.804688 292.027344 C 145.90625 292.402344 143.992188 292.589844 142.089844 292.589844 Z M 281.855469 29.113281 C 280.605469 29.113281 279.367188 29.6875 278.574219 30.769531 L 137.628906 221.972656 C 136.261719 223.828125 135.59375 226.113281 135.742188 228.40625 L 138.023438 263.628906 C 138.125 265.230469 139.058594 266.175781 139.605469 266.59375 C 140.152344 267.011719 141.304688 267.671875 142.878906 267.355469 L 179.222656 260.128906 C 181.625 259.648438 183.746094 258.300781 185.195312 256.332031 L 325.835938 65.542969 C 326.707031 64.363281 326.679688 63.144531 326.582031 62.519531 C 326.488281 61.898438 326.15625 60.726562 324.972656 59.855469 L 284.265625 29.90625 C 283.542969 29.375 282.695312 29.117188 281.855469 29.117188 Z M 281.855469 29.113281 " fill-opacity="1" fill-rule="nonzero"/><path fill="#303030" d="M 313.457031 110.792969 C 310.863281 110.792969 308.25 109.996094 306 108.34375 L 246.757812 64.753906 C 241.15625 60.632812 239.960938 52.757812 244.082031 47.164062 C 248.207031 41.570312 256.09375 40.371094 261.691406 44.492188 L 320.9375 88.082031 C 326.535156 92.203125 327.734375 100.078125 323.609375 105.671875 C 321.140625 109.019531 317.324219 110.792969 313.457031 110.792969 Z M 313.457031 110.792969 " fill-opacity="1" fill-rule="nonzero"/></svg>